# xmcd
#
# Track frame offsets:
#	150
#	34234
#	64850
#	93835
#	113084
#	133105
#	157730
#	180063
#	204452
#	227043
#	253145
#	277866
#
# Disc length: 3949 seconds
# Revision: 0
# Processed by: cddbd v1.5.2PL0 Copyright (c) Steve Scherf et al.
# Submitted via: dBpowerAMP V12.0
#
DISCID=950f6b0c
DTITLE=Truong Vu - Nhung tinh khuc bat hu
DYEAR=1900
DGENRE=Bolero
TTITLE0=Han Mac Tu
TTITLE1=Tuy ca
TTITLE2=Ti ngo cua toi
TTITLE3=Vong nhan cuoi
TTITLE4=Sau lan hen cuoi
TTITLE5=Dap vo cay dan
TTITLE6=Han Do Ban
TTITLE7=Con me tinh ai
TTITLE8=Chuyen tau hoang hon
TTITLE9=Thoi doi
TTITLE10=Chung minh ba dua
TTITLE11=La thu cuoi cung
EXTD=
EXTT0=
EXTT1=
EXTT2=
EXTT3=
EXTT4=
EXTT5=
EXTT6=
EXTT7=
EXTT8=
EXTT9=
EXTT10=
EXTT11=
PLAYORDER=
